<svg height="1886" width="720" xmlns="http://www.w3.org/2000/svg">
<rect height="1886" fill="#555" width="720"></rect>
<text fill="#7f7" font-family="Courier New" font-size="12" xml:space="preserve">
<tspan x="10" y="26">10 megabytes installed</tspan>
<tspan x="10" y="42"></tspan>
<tspan x="10" y="58">node_modules</tspan>
<tspan x="10" y="74">└─┬ node-pre-gyp@0.6.34 </tspan>
<tspan x="10" y="90">  ├─┬ mkdirp@0.5.1 </tspan>
<tspan x="10" y="106">  │ └── minimist@0.0.8 </tspan>
<tspan x="10" y="122">  ├─┬ nopt@4.0.1 </tspan>
<tspan x="10" y="138">  │ ├── abbrev@1.1.0 </tspan>
<tspan x="10" y="154">  │ └─┬ osenv@0.1.4 </tspan>
<tspan x="10" y="170">  │   ├── os-homedir@1.0.2 </tspan>
<tspan x="10" y="186">  │   └── os-tmpdir@1.0.2 </tspan>
<tspan x="10" y="202">  ├─┬ npmlog@4.0.2 </tspan>
<tspan x="10" y="218">  │ ├─┬ are-we-there-yet@1.1.2 </tspan>
<tspan x="10" y="234">  │ │ └── delegates@1.0.0 </tspan>
<tspan x="10" y="250">  │ ├── console-control-strings@1.1.0 </tspan>
<tspan x="10" y="266">  │ ├─┬ gauge@2.7.3 </tspan>
<tspan x="10" y="282">  │ │ ├── aproba@1.1.1 </tspan>
<tspan x="10" y="298">  │ │ ├── has-unicode@2.0.1 </tspan>
<tspan x="10" y="314">  │ │ ├── object-assign@4.1.1 </tspan>
<tspan x="10" y="330">  │ │ ├── signal-exit@3.0.2 </tspan>
<tspan x="10" y="346">  │ │ ├─┬ string-width@1.0.2 </tspan>
<tspan x="10" y="362">  │ │ │ ├── code-point-at@1.1.0 </tspan>
<tspan x="10" y="378">  │ │ │ └─┬ is-fullwidth-code-point@1.0.0 </tspan>
<tspan x="10" y="394">  │ │ │   └── number-is-nan@1.0.1 </tspan>
<tspan x="10" y="410">  │ │ ├─┬ strip-ansi@3.0.1 </tspan>
<tspan x="10" y="426">  │ │ │ └── ansi-regex@2.1.1 </tspan>
<tspan x="10" y="442">  │ │ └── wide-align@1.1.0 </tspan>
<tspan x="10" y="458">  │ └── set-blocking@2.0.0 </tspan>
<tspan x="10" y="474">  ├─┬ rc@1.2.1 </tspan>
<tspan x="10" y="490">  │ ├── deep-extend@0.4.1 </tspan>
<tspan x="10" y="506">  │ ├── ini@1.3.4 </tspan>
<tspan x="10" y="522">  │ ├── minimist@1.2.0 </tspan>
<tspan x="10" y="538">  │ └── strip-json-comments@2.0.1 </tspan>
<tspan x="10" y="554">  ├─┬ request@2.81.0 </tspan>
<tspan x="10" y="570">  │ ├── aws-sign2@0.6.0 </tspan>
<tspan x="10" y="586">  │ ├── aws4@1.6.0 </tspan>
<tspan x="10" y="602">  │ ├── caseless@0.12.0 </tspan>
<tspan x="10" y="618">  │ ├─┬ combined-stream@1.0.5 </tspan>
<tspan x="10" y="634">  │ │ └── delayed-stream@1.0.0 </tspan>
<tspan x="10" y="650">  │ ├── extend@3.0.0 </tspan>
<tspan x="10" y="666">  │ ├── forever-agent@0.6.1 </tspan>
<tspan x="10" y="682">  │ ├─┬ form-data@2.1.4 </tspan>
<tspan x="10" y="698">  │ │ └── asynckit@0.4.0 </tspan>
<tspan x="10" y="714">  │ ├─┬ har-validator@4.2.1 </tspan>
<tspan x="10" y="730">  │ │ ├─┬ ajv@4.11.7 </tspan>
<tspan x="10" y="746">  │ │ │ ├── co@4.6.0 </tspan>
<tspan x="10" y="762">  │ │ │ └─┬ json-stable-stringify@1.0.1 </tspan>
<tspan x="10" y="778">  │ │ │   └── jsonify@0.0.0 </tspan>
<tspan x="10" y="794">  │ │ └── har-schema@1.0.5 </tspan>
<tspan x="10" y="810">  │ ├─┬ hawk@3.1.3 </tspan>
<tspan x="10" y="826">  │ │ ├── boom@2.10.1 </tspan>
<tspan x="10" y="842">  │ │ ├── cryptiles@2.0.5 </tspan>
<tspan x="10" y="858">  │ │ ├── hoek@2.16.3 </tspan>
<tspan x="10" y="874">  │ │ └── sntp@1.0.9 </tspan>
<tspan x="10" y="890">  │ ├─┬ http-signature@1.1.1 </tspan>
<tspan x="10" y="906">  │ │ ├── assert-plus@0.2.0 </tspan>
<tspan x="10" y="922">  │ │ ├─┬ jsprim@1.4.0 </tspan>
<tspan x="10" y="938">  │ │ │ ├── assert-plus@1.0.0 </tspan>
<tspan x="10" y="954">  │ │ │ ├── extsprintf@1.0.2 </tspan>
<tspan x="10" y="970">  │ │ │ ├── json-schema@0.2.3 </tspan>
<tspan x="10" y="986">  │ │ │ └── verror@1.3.6 </tspan>
<tspan x="10" y="1002">  │ │ └─┬ sshpk@1.13.0 </tspan>
<tspan x="10" y="1018">  │ │   ├── asn1@0.2.3 </tspan>
<tspan x="10" y="1034">  │ │   ├── assert-plus@1.0.0 </tspan>
<tspan x="10" y="1050">  │ │   ├── bcrypt-pbkdf@1.0.1 </tspan>
<tspan x="10" y="1066">  │ │   ├─┬ dashdash@1.14.1 </tspan>
<tspan x="10" y="1082">  │ │   │ └── assert-plus@1.0.0 </tspan>
<tspan x="10" y="1098">  │ │   ├── ecc-jsbn@0.1.1 </tspan>
<tspan x="10" y="1114">  │ │   ├─┬ getpass@0.1.6 </tspan>
<tspan x="10" y="1130">  │ │   │ └── assert-plus@1.0.0 </tspan>
<tspan x="10" y="1146">  │ │   ├── jodid25519@1.0.2 </tspan>
<tspan x="10" y="1162">  │ │   ├── jsbn@0.1.1 </tspan>
<tspan x="10" y="1178">  │ │   └── tweetnacl@0.14.5 </tspan>
<tspan x="10" y="1194">  │ ├── is-typedarray@1.0.0 </tspan>
<tspan x="10" y="1210">  │ ├── isstream@0.1.2 </tspan>
<tspan x="10" y="1226">  │ ├── json-stringify-safe@5.0.1 </tspan>
<tspan x="10" y="1242">  │ ├─┬ mime-types@2.1.15 </tspan>
<tspan x="10" y="1258">  │ │ └── mime-db@1.27.0 </tspan>
<tspan x="10" y="1274">  │ ├── oauth-sign@0.8.2 </tspan>
<tspan x="10" y="1290">  │ ├── performance-now@0.2.0 </tspan>
<tspan x="10" y="1306">  │ ├── qs@6.4.0 </tspan>
<tspan x="10" y="1322">  │ ├── safe-buffer@5.0.1 </tspan>
<tspan x="10" y="1338">  │ ├── stringstream@0.0.5 </tspan>
<tspan x="10" y="1354">  │ ├─┬ tough-cookie@2.3.2 </tspan>
<tspan x="10" y="1370">  │ │ └── punycode@1.4.1 </tspan>
<tspan x="10" y="1386">  │ ├── tunnel-agent@0.6.0 </tspan>
<tspan x="10" y="1402">  │ └── uuid@3.0.1 </tspan>
<tspan x="10" y="1418">  ├─┬ rimraf@2.6.1 </tspan>
<tspan x="10" y="1434">  │ └─┬ glob@7.1.1 </tspan>
<tspan x="10" y="1450">  │   ├── fs.realpath@1.0.0 </tspan>
<tspan x="10" y="1466">  │   ├── inflight@1.0.6 </tspan>
<tspan x="10" y="1482">  │   ├─┬ minimatch@3.0.3 </tspan>
<tspan x="10" y="1498">  │   │ └─┬ brace-expansion@1.1.7 </tspan>
<tspan x="10" y="1514">  │   │   ├── balanced-match@0.4.2 </tspan>
<tspan x="10" y="1530">  │   │   └── concat-map@0.0.1 </tspan>
<tspan x="10" y="1546">  │   └── path-is-absolute@1.0.1 </tspan>
<tspan x="10" y="1562">  ├── semver@5.3.0 </tspan>
<tspan x="10" y="1578">  ├─┬ tar@2.2.1 </tspan>
<tspan x="10" y="1594">  │ ├── block-stream@0.0.9 </tspan>
<tspan x="10" y="1610">  │ ├─┬ fstream@1.0.11 </tspan>
<tspan x="10" y="1626">  │ │ └── graceful-fs@4.1.11 </tspan>
<tspan x="10" y="1642">  │ └── inherits@2.0.3 </tspan>
<tspan x="10" y="1658">  └─┬ tar-pack@3.4.0 </tspan>
<tspan x="10" y="1674">    ├─┬ debug@2.6.3 </tspan>
<tspan x="10" y="1690">    │ └── ms@0.7.2 </tspan>
<tspan x="10" y="1706">    ├── fstream-ignore@1.0.5 </tspan>
<tspan x="10" y="1722">    ├─┬ once@1.4.0 </tspan>
<tspan x="10" y="1738">    │ └── wrappy@1.0.2 </tspan>
<tspan x="10" y="1754">    ├─┬ readable-stream@2.2.9 </tspan>
<tspan x="10" y="1770">    │ ├── buffer-shims@1.0.0 </tspan>
<tspan x="10" y="1786">    │ ├── core-util-is@1.0.2 </tspan>
<tspan x="10" y="1802">    │ ├── isarray@1.0.0 </tspan>
<tspan x="10" y="1818">    │ ├── process-nextick-args@1.0.7 </tspan>
<tspan x="10" y="1834">    │ ├── string_decoder@1.0.0 </tspan>
<tspan x="10" y="1850">    │ └── util-deprecate@1.0.2 </tspan>
<tspan x="10" y="1866">    └── uid-number@0.0.6</tspan>
</text>
</svg>
